<mxfile host="app.diagrams.net" modified="2024-02-10T19:46:52.816Z" agent="Mozilla/5.0 (Windows NT 10.0; Win64; x64) AppleWebKit/537.36 (KHTML, like Gecko) Chrome/120.0.0.0 Safari/537.36" version="23.1.2" etag="Ii97kWiLhsoW-iERK7dA" type="github">
  <diagram name="PÃ¡gina-1" id="SCFAAIOrSemYeOBAywDK">
    <mxGraphModel>
      <root>
        <mxCell id="0" />
        <mxCell id="1" parent="0" />
      </root>
    </mxGraphModel>
  </diagram>
</mxfile>
